<?xml version="1.0" encoding="UTF-8"?><svg xmlns="http://www.w3.org/2000/svg" xmlns:xlink="http://www.w3.org/1999/xlink" version="1.2" width="100%" viewBox="0 0 1024 1024" xml:space="preserve" baseProfile="tiny-ps"><title>connectlify</title><path fill="#000000" stroke="none" d=" M833.549500,415.535645   C846.394897,440.280304 853.123901,466.144440 854.586914,493.714417   C856.116882,522.545593 853.481689,550.648438 842.520203,577.413757   C815.723938,642.843750 768.465942,685.145447 698.505859,698.620361   C634.974548,710.857056 578.078186,695.437134 529.717773,651.381836   C527.072876,648.972412 526.148560,647.063416 528.402344,643.827393   C542.112976,624.141724 555.076538,604.005127 564.188843,581.950012   C566.741943,581.363586 567.511353,583.104980 568.557800,584.295837   C589.574951,608.213257 615.796875,622.327087 647.513611,625.700806   C688.458191,630.056091 723.094421,617.077759 750.346924,586.197510   C766.829102,567.521301 776.807800,545.414001 778.629517,520.360413   C782.486877,467.313812 760.588257,427.518524 715.112976,400.652313   C701.776367,392.773224 686.840149,389.457550 671.351196,388.149475   C644.564575,385.887360 619.750549,391.365021 597.039490,405.800110   C569.321411,423.417603 553.569519,449.233429 546.408691,480.732941   C542.905823,496.141632 542.294983,511.966705 540.179504,527.572266   C531.539734,591.307556 504.077454,643.391296 446.471375,676.338196   C422.712860,689.926453 397.189453,697.457764 369.800232,699.523987   C321.248108,703.186768 278.157959,689.555847 240.843674,658.799866   C206.134766,630.191345 183.759689,593.402100 174.980591,549.203491   C166.254974,505.274261 170.108643,462.358093 190.328186,421.818207   C219.355560,363.618744 265.783844,327.083710 329.728943,315.114136   C387.955475,304.214935 440.207886,319.183655 485.794952,357.143494   C487.982697,358.965240 488.617340,360.377319 486.755707,362.901611   C473.591431,380.752014 461.921112,399.582703 450.512634,418.580872   C449.752380,419.846924 449.166290,421.277283 447.486267,422.098816   C443.755890,420.244080 441.368256,416.698578 438.199097,414.109283   C419.916260,399.171753 399.327667,390.216705 375.604462,388.159332   C308.821564,382.367645 256.844208,432.467041 247.192581,489.504517   C238.935165,538.302856 265.032684,587.032837 301.849976,608.992126   C355.085846,640.744141 427.240692,618.448914 453.554840,562.265564   C461.508362,545.284058 465.109344,527.351990 466.684906,508.851929   C469.158386,479.808136 472.384857,450.892578 485.134003,424.111786   C509.765228,372.371521 549.857239,338.291077 604.166260,320.746857   C629.193604,312.661865 654.973938,310.276215 681.064514,312.796265   C729.309082,317.456055 769.915771,337.969788 803.165955,373.117432   C815.131592,385.765747 825.214233,399.808289 833.549500,415.535645  z"></path></svg>