<?xml version="1.0"?><svg version="1.2" baseProfile="tiny-ps" viewBox="0 0 300 300" xmlns="http://www.w3.org/2000/svg" xmlns:xlink="http://www.w3.org/1999/xlink"><title>connectlify</title><g><g fill="#fcfcfc" transform="matrix(.1 0 0 -.1 0 300)"><path d="M0 1500V0h3000v3000H0V1500z"/></g><g fill="#bababa" transform="matrix(.1 0 0 -.1 0 300)"><path d="M935 2076c-201-49-368-213-420-413l-15-57v-182l15-58c9-33 31-89 51-126l35-67 52-53c66-67 136-114 212-140l60-21 77-6 77-6 63 12 63 13 74 35 73 35 64 63 63 64 29 58c45 89 62 147 78 272l15 116 23 51c13 28 40 69 59 91l36 39 48 26 48 26 61 11 60 11 54-10c74-14 131-43 181-93l42-42 30-63 29-62 5-58 5-58-16-58c-30-103-101-186-195-230l-46-21h-180l-56 26c-31 15-75 43-97 64l-41 36-27-53c-15-29-40-72-56-96l-30-43 19-21c10-12 45-39 78-60l59-39 71-21 70-22h100l100 1 79 27 79 27 53 35c29 19 78 62 108 94l54 59 35 70 36 71 11 57 12 56-4 106-5 106-21 60-22 60-46 68-47 68-46 40-46 40-80 39-80 40-54 10c-70 13-167 13-233-1l-53-11-80-38-80-39-46-40-46-40-47-68-46-68-20-57-20-56-15-124-15-123-31-63-31-63-49-39-50-40-51-15-52-15H981l-56 21-55 20-44 45-45 44-28 58-28 57v180l27 55 27 55 43 44 43 44 63 30 63 29h144l45-16c25-9 62-30 82-46 20-17 40-30 45-30 4 0 34 41 65 90l57 89-31 26c-43 37-138 83-205 100l-57 15-76-1-75-1-50-12z"/></g><g fill="#676767" transform="matrix(.1 0 0 -.1 0 300)"><path d="m944 2076-61-14-74-37-74-38-70-71-70-71-32-65c-18-36-39-92-48-125l-15-59v-162l15-59c9-33 29-88 46-122l31-62 51-57 52-57 58-38 58-38 67-22 67-23h190l55 18c30 10 77 30 104 43l49 25 55 52c30 28 72 77 92 108l37 56 22 69 21 68 15 114 15 115 25 52 26 52 40 42 41 42 56 26 57 26 85 1h85l67-33 66-32 37-41 37-42 27-56 26-56v-180l-33-67-33-67-41-35c-22-19-61-45-87-58l-46-23h-200l-55 27-55 27-35 34-34 34-41-71c-22-39-49-83-58-98l-18-26 53-40c68-51 123-78 195-97l57-15h185l80 25 79 25 61 41 61 40 45 52c25 28 61 81 80 118l35 66 15 64 15 64v150l-15 64-16 64-31 61-32 61-76 76-75 76-65 31-65 32-70 15c-88 19-142 19-230 0l-69-15-71-34-71-33-65-60-64-61-38-63c-47-79-62-132-81-281l-15-118-20-44-19-45-41-44-41-44-61-28-61-27-81 4-82 4-40 19c-22 11-60 40-85 65l-46 45-24 50-25 50v200l34 63 34 62 40 36c22 20 63 47 92 60l52 24 60 6 59 6 56-16 56-16 51-34 50-34 59 89 59 89-31 23c-56 42-103 67-162 87l-59 21-85 4-85 5-61-14z"/></g><g fill="#101010" transform="matrix(.1 0 0 -.1 0 300)"><path d="M917 2065c-71-20-150-61-211-111l-54-44-51-75-50-76-21-67-21-67-5-75-6-75 16-75 16-75 35-72 36-73 62-62 62-63 60-32c33-17 84-38 114-47l55-16h172l55 16c30 9 81 30 114 46l59 30 64 64 63 63 35 76 35 76 14 77c7 42 18 110 24 150l11 72 21 45c11 24 38 64 59 88l38 43 58 29 59 30h190l57-28 57-28 50-54 50-55 20-55 21-56v-148l-21-55-20-55-47-52-47-52-58-28-58-27-59-7-58-7-63 16c-66 17-112 42-166 89l-33 29-7-19c-3-10-26-51-51-91l-44-74 27-28c15-16 58-45 95-64l67-36 69-16 69-16 90 5 90 6 58 20c32 11 80 32 108 47l50 28 68 72 69 72 32 66 31 66 16 73 15 72-5 81-6 81-21 64-22 64-45 67-44 68-51 44c-64 56-147 101-223 121l-59 15h-181l-55-15c-30-8-83-29-117-46l-62-31-54-49-55-49-40-63c-22-35-47-84-56-110-15-43-20-76-45-252l-9-61-23-49-23-49-39-39-39-39-57-26-56-26H965l-52 23-52 23-46 49-46 50-27 57-26 57v160l26 57 27 57 47 51 47 50 54 26 55 27 72 5 73 4 52-17 52-17 43-33 43-33 58 90 57 89-18 15c-42 32-142 83-193 98l-55 16-95-1-96-1-48-13z"/></g></g></svg>